<svg width="32" height="32" viewBox="0 0 40 40" fill="none" xmlns="http://www.w3.org/2000/svg">
  <!-- Top-left - Blue -->
  <rect x="4" y="4" width="14" height="18" rx="3" fill="#36C5F0"/>
  <rect x="4" y="4" width="6" height="6" rx="3" fill="#36C5F0"/>
  
  <!-- Top-right - Green -->
  <rect x="22" y="4" width="14" height="18" rx="3" fill="#2EB67D"/>
  <rect x="30" y="4" width="6" height="6" rx="3" fill="#2EB67D"/>
  
  <!-- Bottom-left - Yellow -->
  <rect x="4" y="18" width="14" height="18" rx="3" fill="#ECB22E"/>
  <rect x="4" y="30" width="6" height="6" rx="3" fill="#ECB22E"/>
  
  <!-- Bottom-right - Red/Pink -->
  <rect x="22" y="18" width="14" height="18" rx="3" fill="#E01E5A"/>
  <rect x="30" y="30" width="6" height="6" rx="3" fill="#E01E5A"/>
  
  <!-- Center -->
  <rect x="14" y="14" width="12" height="12" rx="2" fill="white"/>
  <rect x="16" y="16" width="8" height="8" rx="1.5" fill="#611f69"/>
  <rect x="18" y="18" width="4" height="1" rx="0.5" fill="white" opacity="0.8"/>
  <rect x="18" y="20" width="3" height="1" rx="0.5" fill="white" opacity="0.6"/>
</svg>
